<svg width="92.999977" height="65.999878" viewBox="0 0 93 65.9999" fill="none" xmlns="http://www.w3.org/2000/svg" xmlns:xlink="http://www.w3.org/1999/xlink">
	<desc>
			Created with Pixso.
	</desc>
	<defs>
		<linearGradient x1="19.063673" y1="42.522530" x2="95.998131" y2="25.019043" id="paint_linear_45_277_0" gradientUnits="userSpaceOnUse">
			<stop stop-color="#ED1C24"/>
			<stop offset="0.400000" stop-color="#841844"/>
			<stop offset="1.000000" stop-color="#1B1464"/>
		</linearGradient>
	</defs>
	<path id="Vector" d="M67.16 32.63C67.64 32.18 67.67 31.43 67.23 30.95C66.79 30.47 66.05 30.44 65.57 30.88C65.1 31.33 65.07 32.08 65.51 32.56C65.95 33.04 66.69 33.07 67.16 32.63ZM7.13 35.43C7.13 35.43 -7.58 47.93 24.74 50.63C24.74 50.63 -16.07 55.34 7.13 35.43ZM14.68 37.49C13.78 34.3 14.97 31.38 15.67 30.03C15.63 30.18 15.58 30.32 15.53 30.47C15.59 30.35 15.65 30.23 15.7 30.13C15.89 29.77 16.04 29.53 16.12 29.42C16.12 29.36 16.13 29.31 16.13 29.26C17.99 12.79 31.79 0 48.54 0C57.12 0 64.92 3.34 70.74 8.82C105.94 3.73 88.92 28.07 88.65 28.45C98.36 9.94 79.65 14.54 76.21 15.52C79.28 20.49 81.09 26.34 81.17 32.62C81.17 32.75 81.17 32.87 81.17 33C81.17 33.12 81.17 33.25 81.17 33.37C81.04 46.67 73.17 58.08 61.91 63.21L61.9 63.21C60.99 63.63 60.05 64 59.08 64.34C59.07 64.34 59.05 64.35 59.03 64.35C58.46 64.51 57.9 64.65 57.34 64.78C55.1 65.31 52.96 65.68 50.9 65.91C50.12 65.97 49.34 65.99 48.55 65.99C45.94 65.99 43.4 65.68 40.97 65.1C38.54 64.51 36.21 63.65 34.02 62.55C34.02 62.55 34.02 62.55 34.02 62.55C33.55 62.31 33.09 62.06 32.63 61.8C28.19 59.9 16.45 57.21 15.55 57.01C19.42 57.84 23.39 57.86 26.79 57.57C26.79 57.57 26.78 57.56 26.77 57.56C27.1 57.54 27.43 57.51 27.76 57.48C31.38 57.11 34.24 56.43 35.48 56.11C44.21 53.75 51.18 49.25 58.83 40.79L59.31 40.34L59.49 40.53L59.22 45.1L63.04 41.51L63.79 37.81C64.72 37.25 65.69 36.52 66.63 35.64C68.5 33.89 69.64 32.2 70.36 30.46C70.82 29.36 71.52 27.81 71.09 27.34C70.66 26.87 69.04 27.45 67.95 27.81C66.17 28.39 64.44 29.42 62.57 31.18C61.67 32.02 60.9 32.9 60.29 33.76L56.41 34.25L52.59 37.83L57.1 37.92L57.28 38.11L56.8 38.56C56.8 38.56 26.01 49.52 17.03 41.54C17.02 41.53 17.01 41.52 17 41.51L17 41.51C16.09 40.54 15.46 39.55 15.05 38.57C15.05 38.57 15.05 38.57 15.05 38.56C14.92 38.25 14.81 37.94 14.72 37.63C14.71 37.58 14.69 37.54 14.68 37.49L14.68 37.49ZM68.19 14.32C67.16 14.32 67.17 12.7 68.19 12.7C69.22 12.7 69.22 14.32 68.19 14.32ZM63.93 9.61C62.53 9.61 62.53 7.41 63.93 7.41C65.34 7.41 65.34 9.61 63.93 9.61ZM63.35 21.67C62.32 21.67 62.33 20.06 63.35 20.06C64.38 20.06 64.38 21.67 63.35 21.67ZM68.1 9.32C68.56 9.32 68.56 10.06 68.1 10.06C67.63 10.06 67.63 9.32 68.1 9.32ZM60.74 5.74C60.27 5.74 60.27 5.01 60.74 5.01C61.21 5.01 61.21 5.74 60.74 5.74ZM56.68 15.84C56.21 15.84 56.21 15.1 56.68 15.1C57.14 15.1 57.14 15.84 56.68 15.84ZM55.32 8.49C54.85 8.49 54.85 7.75 55.32 7.75C55.79 7.75 55.79 8.49 55.32 8.49ZM53.97 2.92C53.22 2.92 53.22 1.75 53.97 1.75C54.71 1.75 54.71 2.92 53.97 2.92ZM48.45 5.1C47.42 5.1 47.42 3.49 48.45 3.49C49.48 3.49 49.48 5.1 48.45 5.1ZM41 14.17C40.53 14.17 40.53 13.44 41 13.44C41.47 13.44 41.46 14.17 41 14.17ZM35.58 4.47C35.11 4.47 35.11 3.73 35.58 3.73C36.05 3.73 36.05 4.47 35.58 4.47Z" fill="url(#paint_linear_45_277_0)" fill-opacity="1.000000" fill-rule="evenodd"/>
</svg>
